<?xml version="1.0" encoding="UTF-8"?><svg xmlns="http://www.w3.org/2000/svg" viewBox="0 0 1120.7 1252.17"><defs><style>.cls-1{fill:#fff;}.cls-2,.cls-3,.cls-4,.cls-5,.cls-6{stroke:#fff;stroke-width:3px;}.cls-2,.cls-3,.cls-4,.cls-6{stroke-miterlimit:10;}.cls-3{stroke-linecap:square;}.cls-3,.cls-4,.cls-6{fill:none;}.cls-5{stroke-linejoin:round;}.cls-6{stroke-linecap:round;}</style></defs><g id="Livello_1"><rect width="1120.7" height="1252.17"/></g><g id="Livello_2"><rect class="cls-4" x="603.65" y="742.43" width="28.7" height="375.65"/><rect class="cls-4" x="766.96" y="742.43" width="28.7" height="375.65"/><path class="cls-2" d="M757.04,1088.87s15.13,25.57,42.78,42.26l60.52-57.39-.52-55.83s-7.3,.52-11.48,1.57"/><path class="cls-2" d="M772.17,985.57s-27.65,42.26-27.65,68.87l-110.09-201.91,31.83,2.61,105.91,130.43Z"/><circle class="cls-4" cx="237.65" cy="271.04" r="101.48"/><rect class="cls-4" x="206.61" y="835.04" width="207.39" height="53.22" rx="26.61" ry="26.61"/><rect class="cls-4" x="290.35" y="888.65" width="36.78" height="65.35"/><path class="cls-4" d="M291.13,954.78h38.35c6.91,0,12.52,5.61,12.52,12.52v20.35h-63.39v-20.35c0-6.91,5.61-12.52,12.52-12.52Z"/><path class="cls-4" d="M207.23,536.59l-45,11.98c-6.78,1.81-11.36,8.13-10.96,15.14l9.55,165.82c.45,7.83,6.93,13.94,14.77,13.94h35.45c8.17,0,14.79-6.62,14.79-14.79v-177.8c0-9.72-9.21-16.79-18.6-14.29Z"/><path class="cls-4" d="M208.96,743.61s-4.3,50.74,0,68.35,9.78,27.78,9.78,27.78c0,0-6.65,4.7-10.17,10.96,0,0-13.3-18.78-16.04-36s-5.09-71.22-5.09-71.22l21.52,.13Z"/><path class="cls-2" d="M772.43,985.3c-9.98-61.43-52.96-128.09-59.74-136.96s-63.13-87.65-202.96-103.3-209.74,89.74-209.74,89.74l104.87,6.26c40.17-3.65,185,65.31,352.17,247.83,0,0-112.17-305.22-201.39-320.35"/><path class="cls-2" d="M755.48,1085.74s-32.35-26.61,16.7-100.17c0,0,42.26-38.09,66.78-6.78s-2.09,69.91-6.26,74.09-56.87,66.78-77.22,32.87Z"/><path class="cls-4" d="M755.48,1085.74c-10.17-10.53,25.29-122.65,84.52-104.87"/><polygon class="cls-2" points="929.74 705.91 478.96 705.91 478.96 741.13 520.83 741.13 520.83 1143.39 554.87 1143.39 554.87 741.13 860.09 741.13 860.09 1143.39 894.13 1143.39 894.13 741.13 929.74 741.13 929.74 705.91"/><circle class="cls-4" cx="238.17" cy="271.04" r="85.3"/><circle class="cls-1" cx="238.17" cy="271.04" r="5.74"/><polyline class="cls-6" points="235.83 200.35 238.17 271.04 263.48 249.39"/><path class="cls-6" d="M270.78,835.3s-39.13-52.17-44.87-124.7-1.57-142.96,14.61-174.26c16.17-31.3,77.22-92.35,80.35-110.09s-2.09-49.04,1.04-64.17,12.26-41.48,57.13-47.22c0,0,11.48-4.17,34.96,8.35s63.39,12.52,63.39,12.52c0,0-3.39,10.43-13.3,17.22s-9.65,16.43-10.7,28.96,8.87,57.91,8.87,57.91c0,0-8.87,6.26-19.83,5.74,0,0-7.83,43.83-15.13,45.91s-22.43,6.78-50.61-6.26c0,0-6.26,3.13-6.26,13.57"/><path class="cls-6" d="M305.74,450.78s19.83,41.22,70.43,51.65c0,0,13.57,9.39,27.13,27.13s91.83,115.83,170.09,132l-14.61,43.3s-159.65-41.22-225.39-117.91c0,0-21.39-22.43-22.43-42.26"/><path class="cls-3" d="M363.2,441.2s-20.87,17.22-21.39-12.52,22.57-41.93,24.65-17.41"/><path class="cls-6" d="M319.3,431.48h16.17s12.52-40.17,24.52-33.91,14.61,29.22,14.61,29.22l13.04-5.22s-5.35-18.52-.26-28.7,10.16-14.65,14.09-16.83c3.52-1.96,19.17-12.13,36.39-8.61"/><path class="cls-6" d="M407.74,386.61s21.52-4.5,31.7,.39"/><path class="cls-6" d="M416.15,399.33s15.65-2.93,24.07,4.11"/><path class="cls-3" d="M403.43,461.15s9.2,9.59,31.7,13.11"/><path class="cls-3" d="M432.78,434.74s-9.59,11.15,9.98,11.15"/><path class="cls-6" d="M467.61,581.09s-6.26-61.83-6.65-75.52c0,0,19.57-8.22,52.43-5.48l4.3,80.61s-29.35,4.7-50.09,.39Z"/><path class="cls-6" d="M514.17,507.13s18.39,5.87,19.57,30.13-14.09,30.91-14.09,30.91"/><path class="cls-6" d="M532.17,525.91s26.61,10.96,31.3,29.35-8.73,29.78-14.87,33.26c-29.48,16.7-69.65,22.43-69.65,22.43"/><path class="cls-6" d="M376.17,502.43s46.43,27.78,86.35,29.35"/><rect class="cls-6" x="618.26" y="484.83" width="368.61" height="37.56"/><rect class="cls-6" x="631.17" y="484.43" width="19.96" height=".4"/><rect class="cls-6" x="779.87" y="484.43" width="19.95" height=".4"/><rect class="cls-6" x="631.04" y="119.74" width=".13" height="19.95"/><rect class="cls-6" x="799.82" y="119.74" width="1.18" height="19.95"/><path class="cls-6" d="M801,119.74V484.43h170.61V119.74h-170.61Zm19.95,345.13V139.69h130.7V464.87h-130.7Z"/><rect class="cls-6" x="801" y="484.43" width="19.95" height=".4"/><rect class="cls-6" x="951.65" y="484.43" width="19.96" height=".4"/><path class="cls-6" d="M631.17,119.74V484.43h168.65V119.74h-168.65Zm19.96,345.13V139.69h128.74V464.87h-128.74Z"/><rect class="cls-6" x="799.82" y="464.87" width="1.18" height="19.56"/><rect class="cls-6" x="971.61" y="464.87" width=".39" height="19.56"/><path class="cls-2" d="M803.85,303.52c2.42-13.91,4.09-39.27,4.09-42.13,0-3.96-3.21-7.17-7.17-7.17s-7.17,3.21-7.17,7.17c0,2.86,1.67,28.21,4.09,42.13-2.71,1.19-4.61,3.9-4.61,7.05,0,4.25,3.45,7.7,7.7,7.7s7.7-3.45,7.7-7.7c0-3.15-1.9-5.86-4.61-7.05Z"/><path class="cls-2" d="M691.83,484.43s-39.13-62.61-14.09-90.78,59.48-24.26,67.3-38.35-.78-25.04-28.17-22.7-28.96-14.09-28.17-22.7,20.35-31.3,55.57-15.65,54,46.96,49.3,61.83-31.3,28.17-58.7,40.7-39.91,33.65-32.09,54.78c0,0,63.39-93.13,155.74-25.04,0,0,11.74-19.57,26.61-20.35s41.48,7.83,41.48,7.83l-16.17,5.48s18.78,15.13,23.48,26.09l9.13-12s8.02,43.24-13.11,51.07l-238.11-.2Z"/><path class="cls-2" d="M925.18,615.94c-7.19-23.37-21.12-35.51-13.93-49.89l-13.58-.19v-.03l-1.19,.02-1.19-.02v.03l-13.58,.19c7.19,14.38-6.74,26.52-13.93,49.89-7.19,23.37,18.88,88.09,18.88,88.09h19.64s26.07-64.72,18.88-88.09Z"/><path class="cls-4" d="M597.13,705.13s13.7-27.78,39.13-27,34.83,27.78,34.83,27.78l-73.96-.78Z"/><path class="cls-4" d="M664.83,694.17s14.09,5.87,39.52-12.52,53.61-8.22,69.65,3.52,64.57,29.74,83.74,5.87-.39-40.7-10.17-38.35-42.65,33.65-53.61,33.65-5.48,0-5.48,0"/><path class="cls-4" d="M649.17,681.26v-1.17h136.96v2.54c0,11.35-9.2,20.54-20.54,20.54h-95.54"/><path class="cls-4" d="M776.87,678.78l39.13-153.39h3.23c8.68,0,15.04,8.18,12.9,16.59l-33.47,131.72c-1.43,5.64-6.73,9.41-12.53,8.92h0"/><path class="cls-4" d="M570.78,668.87s7.83,1.04,31.83-8.35,27.39-11.48,46.57,19.57"/><path class="cls-2" d="M496.17,499.3s-22.7-33.65-11.74-55.57,49.3-30.52,57.13-62.61-7.04-52.43-19.57-52.43-94.7,9.39-136.96-38.35-4.99-126.17,32.09-147.13c36-20.35,108.78-36.78,106.43,61.83,0,0-18.78-21.91-29.74,2.35s14.87,35.22,45.39,25.04c24.17-8.06,100.17-7.83,115.83,51.65s-11.74,108-72,126-82.96,23.48-89.22,43.83,2.35,45.39,2.35,45.39Z"/><polyline class="cls-5" points="925.04 393.65 915.26 397.17 921.52 382.3 910.96 385.83"/><polyline class="cls-5" points="925.95 371.79 914.08 366.19 932.94 358.52 920.37 352.23"/><polyline class="cls-5" points="913.01 345.48 900.45 349.3 909.29 330.95 895.75 334.72"/><path class="cls-2" d="M428.87,748.7s-18.26-60.52-16.17-100.7"/><circle class="cls-2" cx="195.26" cy="1124.22" r="27"/><circle class="cls-2" cx="433.96" cy="1124.22" r="27"/><circle class="cls-2" cx="358.04" cy="1117.96" r="20.74"/><circle class="cls-2" cx="261" cy="1117.96" r="20.74"/><path class="cls-4" d="M209.74,1100.35s43.83-79.04,99.39-78.26,106.43,79.83,106.43,79.83"/><path class="cls-2" d="M189.39,1097.22s15.65-82.96,89.22-109.57"/><path class="cls-2" d="M342,987.65s77.48,34.43,91.96,109.57"/><path class="cls-4" d="M264.91,1098s27.78-66.52,44.22-75.91c0,0,31.3,32.87,40.7,76.3"/><path class="cls-4" d="M345.13,1031.87s19.57,32.87,20.74,66.52"/><path class="cls-4" d="M271.57,1032.65s-23.48,38.74-20.74,66.52"/></g></svg>