<?xml version="1.0" encoding="UTF-8"?><svg id="Livello_1" xmlns="http://www.w3.org/2000/svg" xmlns:xlink="http://www.w3.org/1999/xlink" viewBox="0 0 3059.06 2044.42"><defs><style>.cls-1{stroke-dasharray:0 0 0 0 27.89 27.89 11.95 27.89;}.cls-1,.cls-2,.cls-3,.cls-4,.cls-5,.cls-6,.cls-7,.cls-8{stroke-width:4px;}.cls-1,.cls-2,.cls-9,.cls-10,.cls-11,.cls-12,.cls-13,.cls-14,.cls-15,.cls-16,.cls-17,.cls-4,.cls-18,.cls-5,.cls-19,.cls-20,.cls-21,.cls-22,.cls-23,.cls-6,.cls-24,.cls-25,.cls-26,.cls-7,.cls-27,.cls-28,.cls-29,.cls-8{stroke-miterlimit:10;}.cls-1,.cls-3,.cls-9,.cls-10,.cls-13,.cls-15,.cls-4,.cls-5,.cls-21,.cls-22,.cls-6,.cls-26,.cls-7,.cls-27,.cls-28,.cls-8{stroke:#000;}.cls-1,.cls-3,.cls-9,.cls-12,.cls-4,.cls-18,.cls-5,.cls-19,.cls-22,.cls-25,.cls-30,.cls-7,.cls-8{fill:none;}.cls-1,.cls-4,.cls-5,.cls-7,.cls-8{stroke-linecap:round;}.cls-2,.cls-12,.cls-14,.cls-16,.cls-17,.cls-18,.cls-20,.cls-23,.cls-31,.cls-29{stroke:#fff;}.cls-3,.cls-31{stroke-linejoin:round;}.cls-32,.cls-10,.cls-13,.cls-15,.cls-6,.cls-26,.cls-27,.cls-28{fill:#fff;}.cls-10,.cls-16{stroke-width:.5px;}.cls-11,.cls-14,.cls-18,.cls-19,.cls-24,.cls-25,.cls-31,.cls-28{stroke-width:3px;}.cls-11,.cls-25{stroke:#f7f7f7;}.cls-13,.cls-17{stroke-width:.75px;}.cls-33{fill:#303030;}.cls-15,.cls-29{stroke-width:.25px;}.cls-5{stroke-dasharray:0 0 0 0 28.34 12.14 27.32 28.34;}.cls-19,.cls-24{stroke:#fcfcfc;}.cls-20,.cls-21,.cls-22,.cls-27{stroke-width:2px;}.cls-34{clip-path:url(#clippath);}.cls-7{stroke-dasharray:0 0 0 0 0 0 12.14 27.32 28.34 12.14 27.32 28.34;}.cls-35{fill:#191919;}.cls-8{stroke-dasharray:0 0 0 0 0 0 27.89 11.95 27.89 27.89 11.95 27.89;}</style><clipPath id="clippath"><path class="cls-30" d="M2539.12,1006.79s-40.38-340.74-301.94-228.66c-141.12,60.47-356.79-16.39-381.45-173.39-24.66-157.01-312.51-242.32-306.71,82.86,0,0-98.11-272.06,20.27-346.81,118.38-74.75,281.49-113.27,490.95,194.01,0,0,20.32,65.56,144.71,47.14,437.66-64.8,334.17,424.85,334.17,424.85Z"/></clipPath></defs><rect width="3059.06" height="2044.42"/><rect class="cls-14" x="2233.72" y="1192.58" width="37.86" height="341.37"/><rect class="cls-14" x="2796.57" y="1192.58" width="37.86" height="432.86"/><polygon class="cls-14" points="2881.12 1154.72 2051.99 1154.72 2051.99 1196.36 2102.47 1196.36 2102.47 1456.33 2140.33 1456.33 2140.33 1196.36 2665.32 1196.36 2665.32 1662.04 2703.18 1662.04 2703.18 1196.36 2881.12 1196.36 2881.12 1154.72"/><rect class="cls-14" x="324.33" y="963.04" width="47.96" height="227.16"/><rect class="cls-14" x="387.43" y="963.04" width="47.96" height="227.16"/><rect class="cls-14" x="459.93" y="966.35" width="47.96" height="227.16" transform="translate(1185.33 2033.05) rotate(167.79)"/><g><line x1="638.71" y1="1077.84" x2="725.66" y2="1176.55"/><rect x="678.75" y="1061.42" width="6.86" height="131.55" transform="translate(-574.78 732.25) rotate(-41.37)"/></g><g><line x1="636.66" y1="1020.55" x2="765.04" y2="1170.41"/><rect x="689.58" y="996.82" width="22.55" height="197.33" transform="translate(-544.1 719.49) rotate(-40.59)"/></g><path class="cls-14" d="M1047.53,913.68s1.48-90.22-13.31-112.41c-14.79-22.19,44.37-22.19,44.37-22.19,0,0-11.83,107.97-31.06,134.59Z"/><rect class="cls-14" x="471.98" y="680.35" width="47.96" height="227.16"/><rect class="cls-14" x="532.56" y="680.35" width="47.96" height="227.16"/><rect class="cls-14" x="595.66" y="680.35" width="47.96" height="227.16"/><rect class="cls-14" x="668.16" y="683.67" width="47.96" height="227.16" transform="translate(1537.27 1430.03) rotate(167.79)"/><path class="cls-24" d="M874.56,1805.9s-24.82-13.04-23.14-45.85c0,0-120.31-23.56-187.62-181.73,0,0-34.49,5.89-39.54-6.73s3.37-46.27,43.75-48.8c0,0,159.01-162.38,459.36-73.2,0,0,15.14-9.25,26.92-5.05s15.99,25.24,11.78,29.45c0,0,169.95,39.54,259.13,220.43,0,0,39.54,22.72,35.34,31.97-4.21,9.25-37.02,25.24-45.43,21.87,0,0-237.25,96.75-470.3,46.27,0,0-11.78,23.56-70.25,11.36Z"/><path class="cls-19" d="M808.51,1570.75s95.07-13.46,199.39,64.78"/><path class="cls-19" d="M870.88,1687.05s80.22-52.76,207.97-26.55"/><path class="cls-19" d="M913.58,1487.98s90.92,30.88,148.71,147.78"/><g><path class="cls-24" d="M2095.16,1809.69s24.82-13.04,23.14-45.85c0,0,120.31-23.56,187.62-181.73,0,0,34.49,5.89,39.54-6.73,5.05-12.62-3.37-46.27-43.75-48.8,0,0-159.01-162.38-459.36-73.2,0,0-15.14-9.25-26.92-5.05-11.78,4.21-15.99,25.24-11.78,29.45,0,0-169.95,39.54-259.13,220.43,0,0-39.54,22.72-35.34,31.97,4.21,9.25,37.02,25.24,45.43,21.87,0,0,237.25,96.75,470.3,46.27,0,0,11.78,23.56,70.25,11.36Z"/><path class="cls-19" d="M2161.2,1574.54s-95.07-13.46-199.39,64.78"/><path class="cls-19" d="M2098.84,1690.83s-80.22-52.76-207.97-26.55"/><path class="cls-19" d="M2056.13,1491.77s-90.92,30.88-148.71,147.78"/></g><path d="M1298.59,1491.04h401.31v107.75c0,56.15-45.59,101.74-101.74,101.74h-197.83c-56.15,0-101.74-45.59-101.74-101.74v-107.75h0Z"/><path class="cls-11" d="M1036.12,1212.14l-20.19-30.29s-30.29-2.52-36.18-13.46-82.45-79.08-82.45-79.08c0,0-11.78-25.24,8.41-13.46s53,39.54,58.05,37.86c5.05-1.68-57.21-67.31-57.21-67.31l13.46-11.78,58.89,61.42-39.54-84.13,15.99-8.41,42.07,82.45s0-81.61,50.48-47.11l-2.52,11.78s-33.65-20.19-27.76,42.07c5.89,62.26,30.29-36.18,30.29-36.18l11.78,2.52s-1.68,44.59-5.89,64.78c-4.21,20.19,33.65,67.31,33.65,67.31l-51.32,21.03Z"/><path class="cls-11" d="M1911.89,1194.48l20.19-30.29s30.29-2.52,36.18-13.46c5.89-10.94,82.45-79.08,82.45-79.08,0,0,11.78-25.24-8.41-13.46-20.19,11.78-53,39.54-58.05,37.86s57.21-67.31,57.21-67.31l-13.46-11.78-58.89,61.42,39.54-84.13-15.99-8.41-42.07,82.45s0-81.61-50.48-47.11l2.52,11.78s33.65-20.19,27.76,42.07c-5.89,62.26-30.29-36.18-30.29-36.18l-11.78,2.52s1.68,44.59,5.89,64.78c4.21,20.19-33.65,67.31-33.65,67.31l51.32,21.03Z"/><path class="cls-11" d="M1278.81,1542.99s31.57-298.88,24-367.02c0,0-37.86,252.4-111.05,252.4s-189.3-237.25-189.3-237.25c0,0,63.1,5.05,83.29-25.24,0,0,98.44,151.44,100.96,113.58s30.29-265.02,103.48-267.54c73.2-2.52,128.72-10.1,128.72-10.1,0,0,30.29,37.86,78.24,40.38s78.24-40.38,78.24-40.38l121.15,15.14s37.86-15.14,90.86,249.87c8.41,42.07,73.2-121.15,73.2-121.15,0,0,40.38,50.48,68.15,45.43,0,0-93.39,265.02-143.87,232.21-78.07-50.75-133.77-254.92-133.77-254.92,0,0,54.24,387.22,69.38,397.31,0,0-171.63,108.53-441.7-22.72Z"/><path class="cls-11" d="M1744.6,1784.66s-123.21,47.72-222.47-69.19c-99.26-116.9,188.38-34.96,222.47,69.19Z"/><path class="cls-11" d="M1471.92,1769.1s-439.17-35.34-504.8-148.91c-65.62-113.58,118.63-138.82,184.25-123.67,65.62,15.14,413.93,171.63,413.93,171.63"/><g><path class="cls-11" d="M1557.69,958.64c2.26,39.51,13.6,55.25,13.6,55.25,0,0,22.78,43.52-37.6,44.08-60.39,.56-105.54-51.36-105.54-51.36,0,0,10.72-91.99,8.47-111.75,0,0-11.29,9.03-18.62-3.39s-16.93-49.1-3.95-64.9c12.98-15.8,23.14-10.16,23.14-2.26,0,0-30.48-86.91-11.29-104.97,19.19-18.06,76.76-38.94,145.05-29.35,68.29,9.59,93.12,10.72,95.94,1.69,0,0-14.11,67.16-55.31,62.08,0,0,15.8,44.59,10.16,54.18-5.64,9.59,12.42,46.28,27.09,47.97l-32.73,18.62s-9.03,60.39-3.95,65.47-54.45,18.62-54.45,18.62Z"/><path class="cls-11" d="M1544.42,801.03s40.64-19.05,65.61-1.27"/><line class="cls-11" x1="1563.04" y1="816.7" x2="1602.41" y2="816.27"/><path class="cls-11" d="M1610.87,910.24s-34.71,2.12-59.68-5.5"/><path class="cls-25" d="M1616.09,874.55s-15.52,10.72-14.96-2.82c.22-5.39,1.86-14.2,7.3-11.67"/><path class="cls-11" d="M1437.75,829.4l26.53,12.98s-10.16-19.75-3.39-31.61,26.53-22.01,37.25-40.64c10.72-18.62,23.14-31.04,45.15-28.22"/></g><path class="cls-11" d="M1326.65,1788.68s67.88-113.36,218.02-82.13c150.14,31.23-127.13,143.34-218.02,82.13Z"/><path class="cls-11" d="M1547.64,1769.1s343.26-25.24,413.93-108.53-2.52-222.11-133.77-176.68c-131.25,45.43-347.49,216.01-347.49,216.01l67.33,69.2Z"/><path class="cls-14" d="M1013.51,913.68s-66.56-122.76-36.98-187.84c29.58-65.08,133.11-187.84-13.31-249.96-146.42-62.12-39.93-97.62,1.48-53.25,41.41,44.37,137.55,100.57,73.95,263.27,0,0-1.48,22.19,17.75,22.19s149.38-2.96,149.38-2.96c0,0-17.75-22.19-8.87-48.81,8.87-26.62,23.66-60.64,23.66-60.64l17.75,39.93s19.23-7.4,35.5-5.92c16.27,1.48,29.58-34.02,29.58-34.02l13.31,35.5s25.14,79.87,1.48,90.22c-23.66,10.35-36.98,13.31-36.98,13.31,0,0,39.93,71.73-31.8,175.27,0,0,23.66-90.96,7.4-104.27s-36.24,103.53-36.24,103.53c0,0-11.09-98.85-24.65-94.66,0,0-27.12,17.75-145.44-1.48,0,0-41.41,16.27-36.98,100.57Z"/><rect class="cls-14" x="368.5" y="908.63" width="1022.21" height="40.38"/><rect class="cls-14" x="238.52" y="1188.79" width="609.54" height="40.38"/><path class="cls-18" d="M837.96,656.23s-12.62-118.63-88.34-186.77"/><path class="cls-31" d="M832.7,620.77s-54.92-53.34-109.83-47.5c-14.84,0-26.87,10.87-26.87,24.28s12.68,28.63,26.87,24.28c63.1-19.35,109.83-1.06,109.83-1.06Z"/><path class="cls-31" d="M817.27,572.64s-35.17-47.96-77.99-50.59c-11.37-1.92-21.99,4.85-23.73,15.12-1.73,10.27,6.01,23.57,17.45,22.07,50.83-6.66,84.27,13.39,84.27,13.39Z"/><path class="cls-31" d="M792.78,522.8s-26.12-35.62-57.91-37.56c-8.44-1.42-16.33,3.6-17.62,11.23s4.47,17.5,12.96,16.39c37.75-4.95,62.58,9.94,62.58,9.94Z"/><path class="cls-31" d="M752.65,471.4s-22.77-21.24-45.06-18.41c-6.04,.12-10.84,4.64-10.73,10.09s5.39,11.54,11.13,9.65c25.5-8.39,44.66-1.33,44.66-1.33Z"/><path class="cls-31" d="M750.98,471.26s-15.05-27.26-6.88-48.18c1.59-5.82,7.14-9.38,12.4-7.95,5.26,1.44,9.88,8.04,6.65,13.14-14.35,22.69-12.17,42.99-12.17,42.99Z"/><path class="cls-31" d="M791.72,521.6s-16.42-40.9-1.32-68.87c3.24-7.91,11.66-11.94,18.8-9.01,7.14,2.93,12.48,13.01,7.06,19.62-24.08,29.38-24.55,58.27-24.55,58.27Z"/><path class="cls-31" d="M815.7,571.56s-13.93-60.18,13.02-95.67c6.19-10.25,18.72-14.02,27.98-8.43,9.26,5.59,14.48,20.7,5.55,28.69-39.69,35.5-46.56,75.41-46.56,75.41Z"/><path class="cls-31" d="M831,622.03s-.3-87.54,48.1-128.09c11.78-12.21,30.28-13.48,41.31-2.84,11.03,10.64,13.49,33.17-1.36,41.39-66.01,36.56-88.06,89.54-88.06,89.54Z"/><path class="cls-14" d="M620.21,1012.11l39.21,174.15h121.22l-39.21-174.15h-121.22Zm143.55,159.08h-93.73l-31.33-145.01,92.62,.62,32.44,144.39Z"/><polygon class="cls-14" points="637.17 1098.04 584 1162.29 600.87 1189.91 633.1 1175.33 646.96 1140.43 637.17 1098.04"/><ellipse class="cls-19" cx="1254.57" cy="669.91" rx="2.87" ry="9.04" transform="translate(-66.02 141.93) rotate(-6.31)"/><ellipse class="cls-19" cx="1299.64" cy="664.16" rx="2.87" ry="9.04" transform="translate(-65.12 146.85) rotate(-6.31)"/><path class="cls-14" d="M2267.37,1139.15h295.31v4.15c0,3.74-3.04,6.78-6.78,6.78h-281.74c-3.74,0-6.78-3.04-6.78-6.78v-4.15h0Z"/><path class="cls-14" d="M2594.3,992.76h-209.49c-8.36,0-15.14,6.78-15.14,15.14l-27.41,116.94c0,8.36,6.78,15.14,15.14,15.14h209.49c8.36,0,15.14-6.78,15.14-15.14l27.41-116.94c0-8.36-6.78-15.14-15.14-15.14Zm-19,125.78c-2.52,9.68-11.01,14.72-19.37,14.72h-187.57c-8.36,0-15.14-6.78-15.14-15.14l23.95-106.85c0-8.36,10.24-11.78,18.6-11.78h187.57c8.36,0,15.14,6.78,15.14,15.14l-23.18,103.9Z"/><path class="cls-14" d="M2727.47,1114.34s15.77-39.75,20.82-40.7-16.72,41.33-16.72,41.33"/><g class="cls-34"><path class="cls-32" d="M2539.12,1006.79s-40.38-340.74-301.94-228.66c-141.12,60.47-356.79-16.39-381.45-173.39-24.66-157.01-312.51-242.32-306.71,82.86,0,0-98.11-272.06,20.27-346.81,118.38-74.75,281.49-113.27,490.95,194.01,0,0,20.32,65.56,144.71,47.14,437.66-64.8,334.17,424.85,334.17,424.85Z"/><g><ellipse class="cls-15" cx="1973.62" cy="579.64" rx="21.05" ry="20.51" transform="translate(1144.16 2461.96) rotate(-82.59)"/><ellipse class="cls-10" cx="1987.7" cy="581.47" rx="21.05" ry="20.51" transform="translate(1154.61 2477.52) rotate(-82.59)"/><ellipse class="cls-13" cx="2001.78" cy="583.3" rx="21.05" ry="20.51" transform="translate(1165.05 2493.08) rotate(-82.59)"/><ellipse class="cls-26" cx="2015.86" cy="585.13" rx="21.05" ry="20.51" transform="translate(1175.5 2508.64) rotate(-82.59)"/><ellipse class="cls-27" cx="2029.94" cy="586.96" rx="21.05" ry="20.51" transform="translate(1185.95 2524.19) rotate(-82.59)"/><ellipse class="cls-28" cx="2044.02" cy="588.8" rx="21.05" ry="20.51" transform="translate(1196.4 2539.75) rotate(-82.59)"/><ellipse class="cls-6" cx="2058.1" cy="590.63" rx="21.05" ry="20.51" transform="translate(1206.84 2555.31) rotate(-82.59)"/></g><g><ellipse class="cls-15" cx="1986.67" cy="672.82" rx="21.05" ry="20.51" transform="translate(747.81 2365.39) rotate(-72.51)"/><ellipse class="cls-10" cx="2000.22" cy="677.09" rx="21.05" ry="20.51" transform="translate(753.21 2381.29) rotate(-72.51)"/><ellipse class="cls-13" cx="2013.76" cy="681.36" rx="21.05" ry="20.51" transform="translate(758.62 2397.19) rotate(-72.51)"/><ellipse class="cls-26" cx="2027.3" cy="685.63" rx="21.05" ry="20.51" transform="translate(764.02 2413.09) rotate(-72.51)"/><ellipse class="cls-27" cx="2040.85" cy="689.89" rx="21.05" ry="20.51" transform="translate(769.42 2429) rotate(-72.51)"/><ellipse class="cls-28" cx="2054.39" cy="694.16" rx="21.05" ry="20.51" transform="translate(774.82 2444.9) rotate(-72.51)"/><ellipse class="cls-6" cx="2067.93" cy="698.43" rx="21.05" ry="20.51" transform="translate(780.22 2460.8) rotate(-72.51)"/></g><g><ellipse class="cls-15" cx="1897.96" cy="659.02" rx="21.05" ry="20.51" transform="translate(259.96 1822.42) rotate(-54.53)"/><ellipse class="cls-10" cx="1909.52" cy="667.25" rx="21.05" ry="20.51" transform="translate(258.1 1835.29) rotate(-54.53)"/><ellipse class="cls-13" cx="1921.09" cy="675.49" rx="21.05" ry="20.51" transform="translate(256.25 1848.17) rotate(-54.53)"/><ellipse class="cls-26" cx="1932.65" cy="683.73" rx="21.05" ry="20.51" transform="translate(254.39 1861.05) rotate(-54.53)"/><ellipse class="cls-27" cx="1944.22" cy="691.97" rx="21.05" ry="20.51" transform="translate(252.53 1873.93) rotate(-54.53)"/><ellipse class="cls-28" cx="1955.78" cy="700.21" rx="21.05" ry="20.51" transform="translate(250.68 1886.8) rotate(-54.53)"/><ellipse class="cls-6" cx="1967.35" cy="708.45" rx="21.05" ry="20.51" transform="translate(248.82 1899.68) rotate(-54.53)"/></g><g><path class="cls-4" d="M1460.54,461.61s1.94,1.12,5.52,2.32"/><path class="cls-5" d="M1493.06,466.41c15.63-1.85,35.86-9.5,58.34-30.88,3.68-3.5,7.2-6.96,10.59-10.38"/><path class="cls-7" d="M1571.86,414.97c32.84-34.51,54.72-62.94,95.81-70.76"/><path class="cls-4" d="M1681.71,342.42c1.96-.14,3.95-.23,5.99-.29"/></g><g><path class="cls-4" d="M1463.91,485.16s4.82,2.77,13.27,4.3"/><path class="cls-1" d="M1489.07,490.44c16.37-.17,39.5-6.45,65.7-31.36,1.75-1.67,3.47-3.33,5.16-4.98"/><path class="cls-8" d="M1569.76,444.21c33.81-34.81,55.25-64.43,93.67-74.71"/><path class="cls-4" d="M1677.11,366.79c4.42-.6,9.06-.97,13.95-1.09"/></g><g><path class="cls-4" d="M1760.89,378.95l3.37-35.34s77.4-37.02,139.66,37.02c0,0-53,56.37-143.03-1.68Z"/><circle class="cls-4" cx="1830.72" cy="371.38" r="21.87"/><path class="cls-4" d="M1762.37,364.64l-51.95-26.92s40.8-18.93,53.84,5.89l-1.89,21.03Z"/><path class="cls-4" d="M1761.63,359.51l-56.52,15.15s35.79,27.25,53.85,5.8l2.67-20.95Z"/></g><path class="cls-6" d="M1733.59,350.13h28.35v20.19h-28.35c-2.69,0-4.88-2.19-4.88-4.88v-10.43c0-2.69,2.19-4.88,4.88-4.88Z" transform="translate(39.54 -155.73) rotate(5.17)"/><path class="cls-3" d="M1750.38,396.83c-10.89,0-19.97,7.92-22.08,18.46-8.69-9.79-21.21-15.93-35.13-15.93-26.25,0-47.53,21.85-47.53,48.8s21.28,48.8,47.53,48.8,47.53-21.85,47.53-48.8c0-2.58-.2-5.12-.58-7.6,3.08,1.62,6.56,2.55,10.25,2.55,12.45,0,22.54-10.36,22.54-23.14s-10.09-23.14-22.54-23.14Z"/><g><ellipse class="cls-15" cx="1850.22" cy="558.87" rx="35.24" ry="36.18" transform="translate(-70.8 345.92) rotate(-10.48)"/><ellipse class="cls-10" cx="1874.21" cy="554.43" rx="35.24" ry="36.18" transform="translate(-69.59 350.21) rotate(-10.48)"/><ellipse class="cls-13" cx="1898.2" cy="549.99" rx="35.24" ry="36.18" transform="translate(-68.38 354.5) rotate(-10.48)"/><ellipse class="cls-26" cx="1922.19" cy="545.55" rx="35.24" ry="36.18" transform="translate(-67.17 358.79) rotate(-10.48)"/><ellipse class="cls-27" cx="1946.18" cy="541.12" rx="35.24" ry="36.18" transform="translate(-65.96 363.08) rotate(-10.48)"/><ellipse class="cls-28" cx="1970.17" cy="536.68" rx="35.24" ry="36.18" transform="translate(-64.76 367.37) rotate(-10.48)"/><ellipse class="cls-6" cx="1994.16" cy="532.24" rx="35.24" ry="36.18" transform="translate(-63.55 371.66) rotate(-10.48)"/></g><g><ellipse class="cls-15" cx="1856.56" cy="619.71" rx="36.18" ry="35.24" transform="translate(1002.47 2380.78) rotate(-82.59)"/><ellipse class="cls-10" cx="1880.75" cy="622.86" rx="36.18" ry="35.24" transform="translate(1020.42 2407.52) rotate(-82.59)"/><ellipse class="cls-13" cx="1904.95" cy="626.01" rx="36.18" ry="35.24" transform="translate(1038.37 2434.25) rotate(-82.59)"/><ellipse class="cls-26" cx="1929.14" cy="629.15" rx="36.18" ry="35.24" transform="translate(1056.32 2460.98) rotate(-82.59)"/><ellipse class="cls-27" cx="1953.34" cy="632.3" rx="36.18" ry="35.24" transform="translate(1074.27 2487.72) rotate(-82.59)"/><ellipse class="cls-28" cx="1977.53" cy="635.45" rx="36.18" ry="35.24" transform="translate(1092.22 2514.45) rotate(-82.59)"/><ellipse class="cls-6" cx="2001.72" cy="638.6" rx="36.18" ry="35.24" transform="translate(1110.17 2541.19) rotate(-82.59)"/></g><g><ellipse class="cls-29" cx="2436.95" cy="816.21" rx="21.05" ry="20.51" transform="translate(763.35 2766.59) rotate(-67.88)"/><ellipse class="cls-16" cx="2423.79" cy="810.86" rx="21.05" ry="20.51" transform="translate(760.1 2751.07) rotate(-67.88)"/><ellipse class="cls-17" cx="2410.64" cy="805.52" rx="21.05" ry="20.51" transform="translate(756.85 2735.55) rotate(-67.88)"/><ellipse class="cls-23" cx="2397.48" cy="800.17" rx="21.05" ry="20.51" transform="translate(753.6 2720.03) rotate(-67.88)"/><ellipse class="cls-20" cx="2384.33" cy="794.82" rx="21.05" ry="20.51" transform="translate(750.35 2704.51) rotate(-67.88)"/><ellipse class="cls-14" cx="2371.17" cy="789.48" rx="21.05" ry="20.51" transform="translate(747.1 2688.99) rotate(-67.88)"/><ellipse class="cls-2" cx="2358.02" cy="784.13" rx="21.05" ry="20.51" transform="translate(743.85 2673.47) rotate(-67.88)"/></g><g><ellipse class="cls-15" cx="2447.97" cy="722.76" rx="21.05" ry="20.51" transform="translate(532.1 2409.28) rotate(-57.81)"/><ellipse class="cls-10" cx="2435.95" cy="715.19" rx="21.05" ry="20.51" transform="translate(532.88 2395.58) rotate(-57.81)"/><ellipse class="cls-13" cx="2423.93" cy="707.63" rx="21.05" ry="20.51" transform="translate(533.67 2381.87) rotate(-57.81)"/><ellipse class="cls-26" cx="2411.92" cy="700.06" rx="21.05" ry="20.51" transform="translate(534.46 2368.17) rotate(-57.81)"/><ellipse class="cls-27" cx="2399.9" cy="692.5" rx="21.05" ry="20.51" transform="translate(535.25 2354.47) rotate(-57.81)"/><ellipse class="cls-28" cx="2387.89" cy="684.93" rx="21.05" ry="20.51" transform="translate(536.03 2340.76) rotate(-57.81)"/><ellipse class="cls-6" cx="2375.87" cy="677.37" rx="21.05" ry="20.51" transform="translate(536.82 2327.06) rotate(-57.81)"/></g><g><ellipse class="cls-15" cx="2530.27" cy="758.63" rx="21.05" ry="20.51" transform="translate(101.27 1796.77) rotate(-39.83)"/><ellipse class="cls-10" cx="2521.18" cy="747.72" rx="21.05" ry="20.51" transform="translate(106.14 1788.41) rotate(-39.83)"/><ellipse class="cls-13" cx="2512.08" cy="736.82" rx="21.05" ry="20.51" transform="translate(111.02 1780.06) rotate(-39.83)"/><ellipse class="cls-26" cx="2502.99" cy="725.91" rx="21.05" ry="20.51" transform="translate(115.89 1771.7) rotate(-39.83)"/><ellipse class="cls-27" cx="2493.89" cy="715.01" rx="21.05" ry="20.51" transform="translate(120.77 1763.35) rotate(-39.83)"/><ellipse class="cls-28" cx="2484.8" cy="704.1" rx="21.05" ry="20.51" transform="translate(125.64 1754.99) rotate(-39.83)"/><ellipse class="cls-6" cx="2475.7" cy="693.2" rx="21.05" ry="20.51" transform="translate(130.51 1746.63) rotate(-39.83)"/></g><g><ellipse class="cls-15" cx="2551.04" cy="867.61" rx="36.18" ry="35.24" transform="translate(1498.08 3347.89) rotate(-85.78)"/><ellipse class="cls-10" cx="2526.71" cy="865.81" rx="36.18" ry="35.24" transform="translate(1477.32 3321.97) rotate(-85.78)"/><ellipse class="cls-13" cx="2502.37" cy="864.02" rx="36.18" ry="35.24" transform="translate(1456.57 3296.04) rotate(-85.78)"/><ellipse class="cls-26" cx="2478.04" cy="862.22" rx="36.18" ry="35.24" transform="translate(1435.82 3270.11) rotate(-85.78)"/><ellipse class="cls-27" cx="2453.71" cy="860.43" rx="36.18" ry="35.24" transform="translate(1415.07 3244.18) rotate(-85.78)"/><ellipse class="cls-28" cx="2429.38" cy="858.63" rx="36.18" ry="35.24" transform="translate(1394.32 3218.25) rotate(-85.78)"/><ellipse class="cls-6" cx="2405.05" cy="856.84" rx="36.18" ry="35.24" transform="translate(1373.57 3192.32) rotate(-85.78)"/></g><g><ellipse class="cls-15" cx="2560.35" cy="807.15" rx="36.18" ry="35.24" transform="translate(848.68 2875.26) rotate(-67.88)"/><ellipse class="cls-10" cx="2537.74" cy="797.97" rx="36.18" ry="35.24" transform="translate(843.1 2848.6) rotate(-67.88)"/><ellipse class="cls-13" cx="2515.14" cy="788.78" rx="36.18" ry="35.24" transform="translate(837.52 2821.93) rotate(-67.88)"/><ellipse class="cls-26" cx="2492.54" cy="779.6" rx="36.18" ry="35.24" transform="translate(831.93 2795.26) rotate(-67.88)"/><ellipse class="cls-27" cx="2469.93" cy="770.41" rx="36.18" ry="35.24" transform="translate(826.35 2768.59) rotate(-67.88)"/><ellipse class="cls-28" cx="2447.33" cy="761.23" rx="36.18" ry="35.24" transform="translate(820.76 2741.92) rotate(-67.88)"/><ellipse class="cls-6" cx="2424.73" cy="752.04" rx="36.18" ry="35.24" transform="translate(815.18 2715.26) rotate(-67.88)"/></g><polyline class="cls-33" points="2083.57 769.06 2087.93 754.91 2073.79 750.55"/><polyline points="2073.79 750.55 2069.43 764.7 2083.57 769.06"/><polyline class="cls-33" points="2150.6 717.51 2150.91 702.71 2136.11 702.41"/><polyline points="2136.11 702.41 2135.81 717.21 2150.6 717.51"/><polyline class="cls-33" points="2177.11 748.42 2177.41 733.63 2162.61 733.33"/><polyline points="2162.61 733.33 2162.31 748.12 2177.11 748.42"/><polyline class="cls-35" points="2364.33 661 2366.46 645.12 2350.28 642.96"/><polyline points="2350.28 642.96 2348.16 658.84 2364.33 661"/><polyline class="cls-33" points="2104.74 802.15 2107.48 787.61 2092.93 784.87"/><polyline points="2092.93 784.87 2090.19 799.41 2104.74 802.15"/><polyline class="cls-33" points="2262.8 627.95 2266.77 612.47 2251.29 608.51"/><polyline points="2251.29 608.51 2247.32 623.99 2262.8 627.95"/><polyline class="cls-33" points="2261.34 671.38 2267.8 666.79 2265.97 664.21 2265.87 664.28 2257.83 662.88 2259.15 654.83 2259.25 654.76 2257.42 652.18 2250.94 656.79"/><polyline points="2250.94 656.79 2244.46 661.39 2246.3 663.97 2246.36 663.93 2254.49 665.26 2253.07 673.38 2253.01 673.42 2254.84 676 2261.34 671.38"/><polyline class="cls-33" points="2253.44 736.09 2261.17 729.7 2258.61 726.62 2258.49 726.72 2248.22 725.69 2249.14 715.41 2249.26 715.31 2246.71 712.23 2238.96 718.64"/><polyline points="2238.96 718.64 2231.2 725.05 2233.76 728.14 2233.83 728.08 2244.22 729.01 2243.18 739.38 2243.11 739.44 2245.66 742.53 2253.44 736.09"/><path class="cls-9" d="M1924.95,786.36s129.56-5.05,212.01-94.23c82.45-89.18,206.97-148.07,280.16-142.18"/><path class="cls-9" d="M1945.99,817.49s129.56-5.05,212.01-94.23c82.45-89.18,206.97-148.07,280.16-142.18"/><path class="cls-9" d="M1978.8,842.73s129.56-5.05,212.01-94.23c82.45-89.18,206.97-148.07,280.16-142.18"/><path class="cls-9" d="M2018.34,866.28s129.56-5.05,212.01-94.23c82.45-89.18,206.97-148.07,280.16-142.18"/><path d="M1904.67,421.38c4.44-6.89-4.28-18.06-11.85-16.85-7.57,1.21-14.51,7.86-15.53,16.12,.12,28.74,29.88,41.66,29.88,41.66,0,0-10.3-27.11-2.5-40.92Z"/><path d="M1934.69,433.22c5.25-2.74,3.77-12.89-1.43-14.83s-11.93-.25-15.53,4.58c-10.2,18.11,3.89,36.88,3.89,36.88,0,0,3.22-20.73,13.07-26.63Z"/><path d="M1957.55,438.99c4.22-2.21,3.03-10.36-1.15-11.93s-9.59-.2-12.48,3.68c-8.2,14.56,3.13,29.65,3.13,29.65,0,0,2.59-16.66,10.5-21.4Z"/><path d="M1907.07,493.63c3.99,5.23-2.28,14.72-8.41,14.23s-12.1-5.36-13.45-11.9c-1.73-23,21.25-35.23,21.25-35.23,0,0-6.51,22.34,.61,32.9Z"/><path d="M1934.12,479.3c4.38,1.86,3.83,10.07-.2,11.96-4.03,1.89-9.53,.96-12.71-2.67-9.31-13.84,.76-29.75,.76-29.75,0,0,3.9,16.38,12.15,20.47Z"/><path d="M1956.67,475.76c3.52,1.5,3.08,8.1-.16,9.61s-7.66,.77-10.22-2.15c-7.49-11.13,.61-23.92,.61-23.92,0,0,3.13,13.17,9.77,16.45Z"/><path d="M1980.85,468.21c3.71-.93,7.35,4.59,5.68,7.76-1.67,3.17-5.64,5.24-9.44,4.46-12.69-4.34-13.96-19.43-13.96-19.43,0,0,10.45,8.6,17.72,7.21Z"/><path d="M1980.59,454.8c4.01,1.13,7-5.12,4.8-8.77-2.2-3.65-6.65-6.09-10.51-5.26-12.61,4.75-11.74,21.96-11.74,21.96,0,0,9.65-9.65,17.45-7.94Z"/><path class="cls-9" d="M1748.27,538.59s97.59-92.55,215.38-76.56"/><path d="M1780.01,463.31c-1.85-2.39-6.82-.73-7.33,2.05-.51,2.79,.95,6.02,3.7,7.4,10.03,3.5,18.2-5.27,18.2-5.27,0,0-10.71,.25-14.56-4.18Z"/><path d="M1787.84,454.32c-.31-2.17-4.03-2.9-5.34-1.33s-1.56,4.13-.32,5.97c5.05,5.79,13.33,3.19,13.33,3.19,0,0-6.82-3.68-7.66-7.83Z"/><path d="M1792.66,447.06c-.25-1.74-3.24-2.33-4.3-1.07s-1.25,3.32-.26,4.8c4.06,4.65,10.71,2.57,10.71,2.57,0,0-5.49-2.96-6.16-6.3Z"/><path d="M1805.47,471.38c2.31-.74,4.85,2.61,3.92,4.68s-3.36,3.56-5.8,3.22c-8.22-2.23-9.65-11.75-9.65-11.75,0,0,6.98,5.02,11.53,3.84Z"/><path d="M1803.82,460.19c1.19-1.3,3.98-.09,4.14,1.54s-.84,3.44-2.5,4.1c-5.97,1.54-10.27-3.93-10.27-3.93,0,0,6.19,.66,8.63-1.71Z"/><path d="M1805.36,451.9c.95-1.04,3.2-.08,3.33,1.24s-.68,2.76-2.01,3.3c-4.8,1.24-8.26-3.16-8.26-3.16,0,0,4.97,.53,6.94-1.37Z"/><path d="M1805.71,442.55c.13-1.41,2.5-1.99,3.4-1.02s1.13,2.61,.39,3.84c-3.08,3.88-8.49,2.47-8.49,2.47,0,0,4.28-2.58,4.7-5.28Z"/><path d="M1801.01,440.98c.89-1.26-.92-3.07-2.46-2.75s-2.94,1.57-3.13,3.01c.1,4.98,6.2,6.8,6.2,6.8,0,0-2.17-4.55-.61-7.06Z"/><path class="cls-9" d="M1801.56,532.25s-20.21-45.41-.12-84.47"/><path d="M1853.12,451.55c3.25-1.22,7.09,3.39,5.91,6.42-1.18,3.02-4.55,5.3-8.06,4.98-11.88-2.63-14.56-16.1-14.56-16.1,0,0,10.3,6.69,16.71,4.7Z"/><path d="M1850.91,438.07c1.61-1.93,5.67-.4,6.01,1.92s-.97,4.96-3.29,6.02c-8.41,2.6-14.92-4.92-14.92-4.92,0,0,8.87,.53,12.19-3.02Z"/><path d="M1850.58,428.09c1.29-1.55,4.56-.32,4.83,1.54s-.78,3.99-2.64,4.84c-6.76,2.09-11.99-3.95-11.99-3.95,0,0,7.13,.42,9.8-2.43Z"/><path d="M1823.43,444.08c-1.81-2.12-6.3-.38-6.65,2.2s1.13,5.49,3.72,6.63c9.36,2.78,16.49-5.63,16.49-5.63,0,0-9.83,.69-13.56-3.2Z"/><path d="M1831.79,434.17c-.38-1.98-3.82-2.49-4.97-.99s-1.25,3.86-.03,5.5c4.89,5.1,12.38,2.35,12.38,2.35,0,0-6.43-3.08-7.38-6.86Z"/><path d="M1835.28,425.16c-.3-1.59-3.07-2-3.99-.8s-1.01,3.1-.03,4.42c3.93,4.1,9.95,1.89,9.95,1.89,0,0-5.17-2.48-5.93-5.52Z"/><path d="M1840.57,415.82c.72-1.45-1.24-3.45-2.7-3.05s-2.68,1.86-2.69,3.51c.66,5.64,6.79,7.52,6.79,7.52,0,0-2.62-5.1-1.4-7.98Z"/><path d="M1846.1,417.14c-.11-1.76,2.75-2.44,4.06-1.2s1.92,3.3,1.23,4.82c-3.1,4.79-10.14,2.89-10.14,2.89,0,0,4.86-3.13,4.85-6.51Z"/><path class="cls-9" d="M1790.58,505.77s47.06-32.09,51.01-82.27"/><g><circle class="cls-22" cx="1609.43" cy="456.24" r="16.25"/><path class="cls-22" d="M1600.65,442.82s-12.72-5.85-12.31-.2c.4,5.65,14.33,14.94,19.58,17.96s22.2,8.68,23.82,5.45-6.66-8.88-6.66-8.88"/></g><g><circle class="cls-22" cx="2341.94" cy="726.16" r="16.25"/><path class="cls-22" d="M2325.9,726.3s-11.8,7.54-6.82,10.25c4.97,2.71,20.31-3.99,25.69-6.77s19.3-13.99,17.46-17.1c-1.84-3.1-11.07,.81-11.07,.81"/></g><polygon class="cls-21" points="2257.07 767.64 2140.33 649.01 2117.62 649.01 2101.21 631.98 2132.76 609.89 2147.9 627.56 2140.54 648.59 2257.07 767.64"/><path d="M1664.66,472.85c-3.76-7.19-13.08-29.16,.12-50.24,2.24-3.58,7.75-2.43,8.23,1.77,1.39,12.09,5.63,31.22,18.49,42.82,2.97,2.68,1.04,7.64-2.97,7.7l-19.85,.33c-1.69,.03-3.24-.89-4.02-2.39Z"/><ellipse class="cls-9" cx="1711.47" cy="426.06" rx="5.26" ry="10.1" transform="translate(-33.3 683.84) rotate(-22.38)"/><ellipse class="cls-9" cx="1726.02" cy="440.84" rx="3.16" ry="6.06" transform="translate(-37.83 690.5) rotate(-22.38)"/><path d="M1563.41,397.86s-3.13-1.98-6.98-.68c-3.85,1.3-4.52,5.37-4.52,5.37,0,0,.33-4.68-1.51-6.85s-6.5-2.64-6.5-2.64c0,0,4.19-.38,6.05-3.55s.5-7,.5-7c0,0,1.79,3.94,5.25,4.65s6.81-1.69,6.81-1.69c0,0-3.49,1.95-2.8,6.43s3.71,5.96,3.71,5.96Z"/><path d="M1861.23,505.55s-3.13-1.98-6.98-.68-4.52,5.37-4.52,5.37c0,0,.33-4.68-1.51-6.85s-6.5-2.64-6.5-2.64c0,0,4.19-.38,6.05-3.55,1.86-3.17,.5-7,.5-7,0,0,1.79,3.94,5.25,4.65s6.81-1.69,6.81-1.69c0,0-3.49,1.95-2.8,6.43,.69,4.49,3.71,5.96,3.71,5.96Z"/><path d="M2060.63,551.82s-3.13-1.98-6.98-.68-4.52,5.37-4.52,5.37c0,0,.33-4.68-1.51-6.85s-6.5-2.64-6.5-2.64c0,0,4.19-.38,6.05-3.55,1.86-3.17,.5-7,.5-7,0,0,1.79,3.94,5.25,4.65s6.81-1.69,6.81-1.69c0,0-3.49,1.95-2.8,6.43,.69,4.49,3.71,5.96,3.71,5.96Z"/><path d="M1640.99,410.73s-.49-2.08-2.59-3.1-4.02,.38-4.02,.38c0,0,2.03-1.79,2.15-3.42s-1.6-3.71-1.6-3.71c0,0,1.88,1.54,3.92,.98s3.03-2.67,3.03-2.67c0,0-.85,2.34,.28,4.03s3.48,2.06,3.48,2.06c0,0-2.22-.61-3.75,1.51-1.53,2.12-.88,3.94-.88,3.94Z"/><path d="M2299.41,740.66s-.49-2.08-2.59-3.1c-2.11-1.02-4.02,.38-4.02,.38,0,0,2.03-1.79,2.15-3.42s-1.6-3.71-1.6-3.71c0,0,1.88,1.54,3.92,.98s3.03-2.67,3.03-2.67c0,0-.85,2.34,.28,4.03s3.48,2.06,3.48,2.06c0,0-2.22-.61-3.75,1.51-1.53,2.12-.88,3.94-.88,3.94Z"/><path d="M2103.72,606.76s-.49-2.08-2.59-3.1-4.02,.38-4.02,.38c0,0,2.03-1.79,2.15-3.42s-1.6-3.71-1.6-3.71c0,0,1.88,1.54,3.92,.98,2.04-.55,3.03-2.67,3.03-2.67,0,0-.85,2.34,.28,4.03s3.48,2.06,3.48,2.06c0,0-2.22-.61-3.75,1.51-1.53,2.12-.88,3.94-.88,3.94Z"/><path d="M1556.86,555.44s-.49-2.08-2.59-3.1-4.02,.38-4.02,.38c0,0,2.03-1.79,2.15-3.42s-1.6-3.71-1.6-3.71c0,0,1.88,1.54,3.92,.98s3.03-2.67,3.03-2.67c0,0-.85,2.34,.28,4.03s3.48,2.06,3.48,2.06c0,0-2.22-.61-3.75,1.51s-.88,3.94-.88,3.94Z"/><path d="M1657.04,334.18s-.49-2.08-2.59-3.1-4.02,.38-4.02,.38c0,0,2.03-1.79,2.15-3.42s-1.6-3.71-1.6-3.71c0,0,1.88,1.54,3.92,.98s3.03-2.67,3.03-2.67c0,0-.85,2.34,.28,4.03s3.48,2.06,3.48,2.06c0,0-2.22-.61-3.75,1.51s-.88,3.94-.88,3.94Z"/><path d="M1924.18,399.08s-.49-2.08-2.59-3.1-4.02,.38-4.02,.38c0,0,2.03-1.79,2.15-3.42s-1.6-3.71-1.6-3.71c0,0,1.88,1.54,3.92,.98s3.03-2.67,3.03-2.67c0,0-.85,2.34,.28,4.03s3.48,2.06,3.48,2.06c0,0-2.22-.61-3.75,1.51s-.88,3.94-.88,3.94Z"/><path d="M2104.95,703.65s-.49-2.08-2.59-3.1-4.02,.38-4.02,.38c0,0,2.03-1.79,2.15-3.42s-1.6-3.71-1.6-3.71c0,0,1.88,1.54,3.92,.98s3.03-2.67,3.03-2.67c0,0-.85,2.34,.28,4.03s3.48,2.06,3.48,2.06c0,0-2.22-.61-3.75,1.51-1.53,2.12-.88,3.94-.88,3.94Z"/><path d="M2063.19,641.91s-.49-2.08-2.59-3.1-4.02,.38-4.02,.38c0,0,2.03-1.79,2.15-3.42s-1.6-3.71-1.6-3.71c0,0,1.88,1.54,3.92,.98s3.03-2.67,3.03-2.67c0,0-.85,2.34,.28,4.03s3.48,2.06,3.48,2.06c0,0-2.22-.61-3.75,1.51-1.53,2.12-.88,3.94-.88,3.94Z"/><path d="M1722.29,306.83s-2.04-.64-3.99,.65-1.72,3.65-1.72,3.65c0,0-.5-2.66-1.85-3.59s-4.01-.51-4.01-.51c0,0,2.28-.83,2.84-2.87,.57-2.04-.75-3.97-.75-3.97,0,0,1.58,1.93,3.61,1.82s3.54-1.94,3.54-1.94c0,0-1.66,1.6-.61,3.99,1.05,2.4,2.94,2.77,2.94,2.77Z"/><path d="M1779.52,321.72s-1.16-.36-2.27,.37-.98,2.08-.98,2.08c0,0-.29-1.51-1.06-2.05s-2.29-.29-2.29-.29c0,0,1.3-.47,1.62-1.64s-.43-2.26-.43-2.26c0,0,.9,1.1,2.06,1.04s2.02-1.11,2.02-1.11c0,0-.95,.91-.35,2.28s1.68,1.58,1.68,1.58Z"/><path d="M1796.82,412.44s-1.16-.36-2.27,.37-.98,2.08-.98,2.08c0,0-.29-1.51-1.06-2.05s-2.29-.29-2.29-.29c0,0,1.3-.47,1.62-1.64s-.43-2.26-.43-2.26c0,0,.9,1.1,2.06,1.04s2.02-1.11,2.02-1.11c0,0-.95,.91-.35,2.28s1.68,1.58,1.68,1.58Z"/><path d="M2192.6,606.75s-1.16-.36-2.27,.37-.98,2.08-.98,2.08c0,0-.29-1.51-1.06-2.05s-2.29-.29-2.29-.29c0,0,1.3-.47,1.62-1.64s-.43-2.26-.43-2.26c0,0,.9,1.1,2.06,1.04s2.02-1.11,2.02-1.11c0,0-.95,.91-.35,2.28s1.68,1.58,1.68,1.58Z"/><path d="M2010.24,732.53s-1.16-.36-2.27,.37-.98,2.08-.98,2.08c0,0-.29-1.51-1.06-2.05s-2.29-.29-2.29-.29c0,0,1.3-.47,1.62-1.64s-.43-2.26-.43-2.26c0,0,.9,1.1,2.06,1.04s2.02-1.11,2.02-1.11c0,0-.95,.91-.35,2.28s1.68,1.58,1.68,1.58Z"/><path d="M1548.15,501.58s-1.16-.36-2.27,.37-.98,2.08-.98,2.08c0,0-.29-1.51-1.06-2.05s-2.29-.29-2.29-.29c0,0,1.3-.47,1.62-1.64s-.43-2.26-.43-2.26c0,0,.9,1.1,2.06,1.04s2.02-1.11,2.02-1.11c0,0-.95,.91-.35,2.28s1.68,1.58,1.68,1.58Z"/></g><path class="cls-20" d="M2576.31,1010.54h-106.6c-5.43,0-10.14,3.79-11.37,9.15l-8.23,35.98c-1.7,7.41,3.86,14.49,11.37,14.49h106.6c5.43,0,10.14-3.79,11.37-9.15l8.23-35.98c1.7-7.41-3.86-14.49-11.37-14.49Z"/><path class="cls-14" d="M2440.01,1010.12h-42.94c-5.43,0-10.14,3.79-11.37,9.15l-8.23,35.98c-1.7,7.41,3.86,14.49,11.37,14.49h42.94c5.43,0,10.14-3.79,11.37-9.15l8.23-35.98c1.7-7.41-3.86-14.49-11.37-14.49Z"/><path class="cls-14" d="M2562.14,1077.11l-180.66-.32c-8.61,0-12.02,2.52-13,7.26l-7.2,30.01c-1.57,6.59-.15,11,11.75,11l175.29,.57c8.61,0,16.08-3.03,18.02-7.31l6.84-30.49c1.3-6.31-2.6-10.41-11.05-10.73Z"/><line class="cls-12" x1="2383.26" y1="1084.36" x2="2561.84" y2="1084.36"/><line class="cls-12" x1="2381.06" y1="1092.57" x2="2559.63" y2="1092.57"/><line class="cls-12" x1="2378.85" y1="1100.77" x2="2557.42" y2="1100.77"/><line class="cls-12" x1="2376.64" y1="1108.97" x2="2555.21" y2="1108.97"/><line class="cls-12" x1="2374.43" y1="1117.17" x2="2553" y2="1117.17"/><circle class="cls-32" cx="2404.03" cy="1088.52" r="1.42"/><circle class="cls-32" cx="2442.84" cy="1088.52" r="1.42"/><circle class="cls-32" cx="2424.28" cy="1096.67" r="1.42"/><circle class="cls-32" cx="2423.33" cy="1104.87" r="1.42"/><circle class="cls-32" cx="2422.39" cy="1113.23" r="1.42"/><circle class="cls-32" cx="2445.89" cy="1096.67" r="1.42"/><circle class="cls-32" cx="2444.94" cy="1104.87" r="1.42"/><circle class="cls-32" cx="2444" cy="1113.23" r="1.42"/><circle class="cls-32" cx="2451.57" cy="1096.67" r="1.42"/><circle class="cls-32" cx="2474.13" cy="1096.67" r="1.42"/><circle class="cls-32" cx="2450.62" cy="1104.87" r="1.42"/><circle class="cls-32" cx="2463.24" cy="1104.87" r="1.42"/><circle class="cls-32" cx="2449.68" cy="1113.23" r="1.42"/><circle class="cls-32" cx="2492.27" cy="1113.23" r="1.42"/><circle class="cls-32" cx="2449.68" cy="1088.52" r="1.42"/><circle class="cls-32" cx="2491.74" cy="1088.52" r="1.42"/><circle class="cls-32" cx="2551.06" cy="1088.52" r="1.42"/><line class="cls-12" x1="2509.94" y1="1117.49" x2="2517.51" y2="1073.64"/><path class="cls-32" d="M2520.52,1073.53c.33-1.54-.65-3.06-2.19-3.39s-3.06,.65-3.39,2.19,2.19,3.39,2.19,3.39c0,0,3.06-.65,3.39-2.19Z"/><line class="cls-12" x1="2464.87" y1="1061.12" x2="2564.57" y2="1061.12"/><ellipse class="cls-12" cx="2489.9" cy="1054.29" rx="4.63" ry="4.73"/><ellipse class="cls-12" cx="2522.92" cy="1054.29" rx="4.63" ry="4.73"/><path class="cls-23" d="M2483.78,1052.9l50.72-.18c2.08,0,3.64-1.89,3.28-3.93l-1.19-6.6-15.99-2.73-7.95-10.35c-.69-.9-1.76-1.42-2.9-1.41l-19.35,.17c-1.56,.01-2.94,1.03-3.41,2.51l-5.99,18.75c-.6,1.87,.8,3.78,2.77,3.77Z"/><path class="cls-23" d="M2486.76,1041.38l31.44-.32-7.05-9.36s-1.05-1.37-2.63-1.37-17.16,.32-17.77,.32-1.09,.79-1.21,1.34-2.79,9.39-2.79,9.39Z"/><line class="cls-23" x1="2500.39" y1="1030.29" x2="2500.75" y2="1041.26"/><path class="cls-14" d="M896.31,730.44c-14.58-47.39-42.83-71.99-28.25-101.15l-27.53-.39v-.07l-2.41,.03-2.41-.03v.07l-27.53,.39c14.58,29.16-13.67,53.77-28.25,101.15-14.58,47.39,38.27,178.61,38.27,178.61h39.83s52.85-131.22,38.27-178.61Z"/><path class="cls-14" d="M2654.28,1111.18h91.18v16.42c0,14.79-12.01,26.8-26.8,26.8h-37.57c-14.79,0-26.8-12.01-26.8-26.8v-16.42h0Z"/></svg>